<svg xmlns="http://www.w3.org/2000/svg" viewBox="0 0 123.68 123.68"><title>flag with white circle border</title><g id="2ffc3fca-12d5-4d38-93b4-b1b1163f5d7e" data-name="Layer 2"><g id="b0fe6c7d-a452-4760-aa9f-698a0efa0476" data-name="Layer 6"><circle cx="61.84" cy="61.84" r="61.84" fill="#fff"/><circle cx="61.84" cy="61.84" r="58.68" fill="#f15b29"/><path d="M61.84,121.21a59.37,59.37,0,0,1-42-101.35,59.37,59.37,0,0,1,84,84A59,59,0,0,1,61.84,121.21Zm0-117.35a58,58,0,1,0,58,58A58,58,0,0,0,61.84,3.85Z" fill="#f15b29"/><circle cx="61.84" cy="61.84" r="56.81" fill="#f15b29"/><path d="M61.84,119.34a57.5,57.5,0,1,1,57.5-57.5A57.57,57.57,0,0,1,61.84,119.34Zm0-113.61A56.11,56.11,0,1,0,118,61.84,56.18,56.18,0,0,0,61.84,5.72Z" fill="#fff"/><path d="M111.64,63.82c-.08-.09-.21,0-.31,0a7.64,7.64,0,0,1-2.27,0,17.64,17.64,0,0,1-5.43-1.7,22.77,22.77,0,0,1-6.23-4.25.55.55,0,0,1-.11-.8c.84-1.41,1.65-2.85,2.49-4.26a1.12,1.12,0,0,0,.11-1,11.48,11.48,0,0,0-1.17-2.53,20.23,20.23,0,0,0-6.94-6.4,22.6,22.6,0,0,0-5-2.25,11.71,11.71,0,0,0-7.27-.4c.57-1,1.08-1.9,1.62-2.78.24-.39.16-.59-.22-.8-.78-.42-1.53-.88-2.3-1.32s-.68-.47-1.13.3l-15.65,27-15.65-27c-.45-.77-.34-.76-1.13-.3s-1.52.9-2.3,1.32c-.39.21-.46.41-.22.8.54.88,1,1.79,1.62,2.78a11.71,11.71,0,0,0-7.27.4,22.6,22.6,0,0,0-5,2.25A20.23,20.23,0,0,0,25,49.29a11.48,11.48,0,0,0-1.17,2.53,1.12,1.12,0,0,0,.11,1c.84,1.41,1.65,2.85,2.49,4.26a.55.55,0,0,1-.11.8A22.77,22.77,0,0,1,20,62.13a17.64,17.64,0,0,1-5.43,1.7,7.64,7.64,0,0,1-2.27,0c-.1,0-.23-.07-.31,0s0,.23.06.34.11.19.16.28Q18.88,75.88,25.5,87.32a1.86,1.86,0,0,0,1,.87,8.08,8.08,0,0,0,4.27.29,16.34,16.34,0,0,0,10.58-6.42,9.77,9.77,0,0,0,1.68-3.7,1.07,1.07,0,0,0-.14-.84c-.85-1.44-1.67-2.9-2.53-4.34a.53.53,0,0,1,.12-.79,38.42,38.42,0,0,1,4.19-3.23,36.41,36.41,0,0,1,4.6-2.63,21,21,0,0,1,6.61-2.12,8.25,8.25,0,0,1,1.72,0,1.08,1.08,0,0,1,.91.61l1,1.68L49.49,84c-.4.7-.79,1.41-1.22,2.09-.25.39-.22.61.2.84q1.27.68,2.5,1.45c.41.26.61.15.83-.24.93-1.65,1.89-3.28,2.84-4.92l7.2-12.44L69,83.19c.95,1.64,1.91,3.27,2.84,4.92.22.4.42.5.83.24q1.22-.76,2.5-1.45c.43-.23.45-.45.2-.84-.43-.68-.82-1.39-1.22-2.09l-10-17.27,1-1.68a1.08,1.08,0,0,1,.91-.61,8.25,8.25,0,0,1,1.72,0,21,21,0,0,1,6.61,2.12A36.41,36.41,0,0,1,79,69.17a38.42,38.42,0,0,1,4.19,3.23.53.53,0,0,1,.12.79c-.86,1.44-1.68,2.9-2.53,4.34a1.07,1.07,0,0,0-.14.84,9.77,9.77,0,0,0,1.68,3.7,16.34,16.34,0,0,0,10.58,6.42,8.08,8.08,0,0,0,4.27-.29,1.86,1.86,0,0,0,1-.87q6.61-11.45,13.24-22.88c.05-.09.11-.19.16-.28S111.74,63.94,111.64,63.82Z" fill="#fff"/></g></g></svg>