<svg id="9ace7188-51ed-40ba-a085-da7f6b15547c" data-name="sports" xmlns="http://www.w3.org/2000/svg" viewBox="0 0 280.44 226"><title>two rings backgrd</title><g opacity="0.15"><path d="M463.39-838.2c43.38-.31,84.14,30.51,95.79,75,8.84,33.75,1.92,64.58-20.27,91.54-16.87,20.5-38.95,32.5-65.24,35.5-35.07,4-64.79-7.45-88.55-33.66C371.35-685,363.34-703,360.63-723.29c-3.11-23.3,1.52-45.14,13.49-65.42,1.2-2,2.6-2.93,5-2.61a60.73,60.73,0,0,1,23.54,8.23c2.65,1.59,3.24,2.82,1.22,5.59-9,12.37-13.15,26.38-13.15,41.64,0,33.32,25.48,62.88,58.42,68.43a70.61,70.61,0,0,0,77.83-44c15.84-41.09-9.65-86.79-53-94.71a67.47,67.47,0,0,0-25.69.13,5.6,5.6,0,0,1-5.59-1.53A96.44,96.44,0,0,0,418.27-825c-0.85-.42-2.13-0.67-2.17-1.71-0.05-1.33,1.41-1.5,2.34-1.94C432-835.15,446.35-838.38,463.39-838.2Z" transform="translate(-282.47 861.36)" fill="#fff"/><path d="M373.33-860.58c10.91-2.79,18.49,2.18,25.24,10.17,5.47,6.47,5.66,4.48,0,10.19-3.66,3.72-7.42,7.36-11.1,11.06-0.55.56-1.58,1-1.07,2.05,0.37,0.75,1.27.51,2,.62,39.75,6.28,71.15,39.71,75.3,80,2.54,24.66-4.09,46.56-19.1,66.14-1.73,2.26-3.32,2.62-5.87,1.58a66.54,66.54,0,0,1-18-10.89c-2-1.73-2.46-3-.42-5.26,22.89-25.83,21.56-63.78-3.77-87.65-17.9-16.86-39.54-21.7-62.86-13.95s-37.94,24.36-42.2,48.65c-6.34,36.12,17.41,68.27,53.8,73.4,4.74,0.67,7.59,2.36,10.29,6a95.06,95.06,0,0,0,16.31,16.59c1,0.78,2.81,1.34,2.35,2.87s-2.27,1.18-3.5,1.41c-26.64,4.9-51-.54-72.53-17-20.49-15.66-32.11-36.57-35.15-62.27-5.55-47,27.25-90.82,73.87-99.35,1.14-.21,2.88.24,3.26-1.06s-1.33-2.13-2.22-3q-6.27-6.35-12.68-12.56c-1.7-1.64-1.64-2.9.06-4.52,3.77-3.61,7.46-7.32,11.09-11.07a6.59,6.59,0,0,1,5.2-2.08C365.56-860.53,369.45-860.58,373.33-860.58Z" transform="translate(-282.47 861.36)" fill="#fff"/></g></svg>