<svg xmlns="http://www.w3.org/2000/svg" viewBox="0 0 8.39 323.08">
  <defs>
    <style>.cls-1{fill:#eb521d;stroke:#eb521d;stroke-miterlimit:10;}.cls-2{fill:#eb521d;}</style>
  </defs>
  <title>Asset 147</title>
  <g id="Layer_2" data-name="Layer 2">
    <g id="piercing">
      <path class="cls-1" d="M3.91.5h.52a2,2,0,0,1,2,2V303.05a0,0,0,0,1,0,0H1.87a0,0,0,0,1,0,0V2.54a2,2,0,0,1,2-2Z" transform="matrix(1, -0.01, 0, 1, 1.3, 0.04)"/>
      <polygon class="cls-2" points="5.39 283.96 2.91 302.95 5.74 321.89 8.22 302.9 5.39 283.96"/>
      <path class="cls-2" d="M8.39,302.9,5.75,323.08,2.74,303l2.64-20.19ZM5.73,320.7l2.32-17.8L5.4,285.15l-2.32,17.8Z"/>
    </g>
  </g>
</svg>