<svg xmlns="http://www.w3.org/2000/svg" viewBox="0 0 326.84 390.27"><defs><style>.cls-1,.cls-3{fill:#6d6f71;}.cls-2,.cls-5{fill:#fff;}.cls-2,.cls-6{stroke:#f15b29;stroke-width:2px;}.cls-2,.cls-3,.cls-6{stroke-miterlimit:10;}.cls-3{stroke:#fff;}.cls-4{fill:#eb5224;}.cls-6,.cls-7{fill:#f15b29;}</style></defs><title>Asset 149</title><g id="Layer_2" data-name="Layer 2"><g id="piercing"><path class="cls-1" d="M162.24,236.2a73,73,0,0,0-9.39,145.48c-1.72-4.53-.59-10.27,3.4-13.22a59.54,59.54,0,1,1,12.47-.06c4,2.91,5.2,8.64,3.5,13.2a73,73,0,0,0-10-145.41Z"/><path class="cls-2" d="M251.65,134.39,232.09,1H93.7L72.64,135.3C-20.19,179.73,8.1,237.93,8.1,237.93c42.87,0,70.18,23.69,70.18,23.69l0-2.07a89.53,89.53,0,0,0,83.9,58.29h0a89.52,89.52,0,0,0,83.69-57.76l-.06,1.54s27.31-23.69,70.18-23.69C316,237.93,346.76,178.93,251.65,134.39Z"/><circle class="cls-3" cx="147.15" cy="373.55" r="16.22"/><circle class="cls-3" cx="179.58" cy="373.55" r="16.22"/><polygon class="cls-2" points="64.13 369.16 92.03 358.02 62.94 352.14 64.13 369.16"/><circle class="cls-4" cx="278.39" cy="194.73" r="19.18" transform="translate(-59.2 156.61) rotate(-28.53)"/><path class="cls-5" d="M291.71,187.53a19.16,19.16,0,0,0-.74-2c-.14-.29-.27-.6-.44-.92s-.36-.64-.55-1-.45-.64-.68-1a7.43,7.43,0,0,0-.82-.88l-.44-.41-.49-.35a6.79,6.79,0,0,0-1-.6,7.44,7.44,0,0,0-1-.43,5.93,5.93,0,0,0-1-.28,6.56,6.56,0,0,0-.84-.19l-.67-.09-.59-.1.59-.1.69-.09a4.38,4.38,0,0,1,.9,0,4.48,4.48,0,0,1,1.07.13,5.56,5.56,0,0,1,1.17.34,5.73,5.73,0,0,1,1.17.6l.56.38.51.46a8.41,8.41,0,0,1,.9,1,9,9,0,0,1,1.44,3.26A7.44,7.44,0,0,1,291.71,187.53Z"/><path class="cls-4" d="M19.22,238.47S71.36,216.68,79,260.31C79,260.31,30.33,239,19.22,238.47Z"/><path class="cls-4" d="M304.49,237.74s-48.18-20-59.81,23C244.68,260.76,293.41,238.74,304.49,237.74Z"/><ellipse class="cls-6" cx="60.45" cy="360.26" rx="12.15" ry="18.43"/><polygon class="cls-2" points="30.22 345.33 64.42 352.45 64.38 367.96 33.05 379.47 30.22 345.33"/><circle class="cls-2" cx="23.03" cy="363.11" r="22.02" transform="translate(-322.21 248.25) rotate(-67.97)"/><path class="cls-7" d="M27.62,351.75s-.18-.17-.51-.45-.81-.66-1.4-1.09c-.3-.2-.62-.43-1-.64s-.73-.42-1.13-.63-.83-.36-1.25-.54A8.6,8.6,0,0,0,21,348l-.68-.14-.69,0a7.68,7.68,0,0,0-1.34,0,8.33,8.33,0,0,0-1.25.21,6.65,6.65,0,0,0-1.11.33,8.13,8.13,0,0,0-.93.34l-.7.33-.63.28s.18-.17.52-.44l.62-.49a4.8,4.8,0,0,1,.88-.54,5.21,5.21,0,0,1,1.12-.52,6.47,6.47,0,0,1,1.34-.37,6.62,6.62,0,0,1,1.5-.12l.78,0,.77.14a9.59,9.59,0,0,1,1.48.44,10.47,10.47,0,0,1,3.38,2.27A9.51,9.51,0,0,1,27.62,351.75Z"/><polygon class="cls-2" points="262.71 369.16 234.81 358.02 263.91 352.14 262.71 369.16"/><ellipse class="cls-6" cx="266.4" cy="360.26" rx="12.15" ry="18.43"/><polygon class="cls-2" points="296.62 345.33 262.42 352.45 262.46 367.96 293.8 379.47 296.62 345.33"/><circle class="cls-2" cx="303.82" cy="363.11" r="22.02" transform="translate(-114.02 140.48) rotate(-22.03)"/><path class="cls-7" d="M299.22,351.75a9.51,9.51,0,0,1,1.54-2,10.47,10.47,0,0,1,3.38-2.27,9.59,9.59,0,0,1,1.48-.44l.77-.14.78,0a6.62,6.62,0,0,1,1.5.12,6.47,6.47,0,0,1,1.34.37,5.21,5.21,0,0,1,1.12.52,4.8,4.8,0,0,1,.88.54l.62.49c.34.27.52.44.52.44l-.63-.28-.7-.33a8.13,8.13,0,0,0-.93-.34,6.65,6.65,0,0,0-1.11-.33,8.33,8.33,0,0,0-1.25-.21,7.68,7.68,0,0,0-1.34,0l-.69,0-.68.14a8.6,8.6,0,0,0-1.34.37c-.42.18-.86.33-1.25.54s-.78.4-1.13.63-.67.44-1,.64c-.58.43-1.08.8-1.4,1.09S299.22,351.75,299.22,351.75Z"/></g></g></svg>