<svg id="7c872962-ac8a-4619-86d9-14a91d785482" data-name="piercing" xmlns="http://www.w3.org/2000/svg" viewBox="0 0 50.74 40.36"><title>piercing ring top</title><path d="M691,533.72c13.13-5.5,27-2.4,30.91,6.93,1.61,3.84,1.34,8.2-.66,12.5a29.43,29.43,0,0,0-4.14-.65c2-3.62,2.4-7.24,1.11-10.3a10.07,10.07,0,0,0-3.26-4.13c-5-3.78-13.82-4.26-22.41-.65a28,28,0,0,0-12.78,10.16c-2.59,4-3.23,8.09-1.81,11.49s4.78,5.8,9.46,6.77c0.33,0.07.67,0.11,1,.16-0.83,1.18-.88,3-1.49,4.29a23.12,23.12,0,0,1-8.17-3.95,13.93,13.93,0,0,1-4.49-5.73c-1.95-4.65-1.19-10.05,2.14-15.21A32,32,0,0,1,691,533.72Z" transform="translate(-672.69 -530.49)" fill="#6d6f71" stroke="#6d6f71" stroke-miterlimit="10"/></svg>