<svg xmlns="http://www.w3.org/2000/svg" viewBox="0 0 271.38 270.68"><defs><style>.cls-1{fill:#e95124;}</style></defs><title>Asset 146</title><g id="Layer_2" data-name="Layer 2"><g id="trav_doc" data-name="trav doc"><path class="cls-1" d="M77.31,0c7.32.17,14.64.52,22,.43a9.2,9.2,0,0,1,8,4.12C133.77,39.35,160.38,74,186.64,109c4.39,5.84,8.74,9,16.5,8.8,14.81-.3,29.65.71,44.48,1.16a26.38,26.38,0,0,1,19.84,9.21c6.24,7.14,4.92,15-3.16,19.88s-17,6-26,6q-19.43,0-38.85-1c-4.46-.23-7.3,1-10,4.6C163,193.2,136.38,228.6,110,264.19c-3.19,4.31-6.41,6.78-12,6.26-4.83-.45-9.75.16-14.63.22-6.63.08-6.75-.1-4.15-6q12.9-29.41,25.84-58.81c7.41-16.85,14.76-33.73,22.32-50.5,1.88-4.17,1.27-5.44-3.5-5.59-25.15-.76-50.3-1.76-75.44-2.83-3.56-.15-5.89.77-7.94,3.85-5.71,8.6-12,16.82-17.61,25.48-2.76,4.25-5.95,6.25-11,5.9a99.93,99.93,0,0,0-10.69.32l-1.12-2c3.59-13.8,7.16-27.61,10.8-41.4a15.37,15.37,0,0,0-.2-8.29C7.26,118.71,4,106.56.88,94.41c-.46-1.75-2.12-4,1-5.1,7.52-2.65,17.51.83,22,7.46,5.17,7.59,10.55,15,15.71,22.65,2.44,3.6,5.38,5,9.91,4.75,23-1.23,46.11-2.09,69.17-3.09,10.59-.46,10.59-.47,6.25-10.29l-.23-.51L75.35,1.12Z"/></g></g></svg>