<svg xmlns="http://www.w3.org/2000/svg" viewBox="0 0 8.39 323.08">
  <defs>
    <style>.cls-1{fill:#eb521d;stroke:#eb521d;stroke-miterlimit:10;}.cls-2{fill:#eb521d;}</style>
  </defs>
  <title>Asset 148</title>
  <g id="Layer_2" data-name="Layer 2">
    <g id="piercing">
      <path class="cls-1" d="M3.95,20h.52a2,2,0,0,1,2,2V322.59a0,0,0,0,1,0,0H1.91a0,0,0,0,1,0,0V22.07A2,2,0,0,1,3.95,20Z" transform="translate(7 342.57) rotate(180)"/>
      <polygon class="cls-2" points="3 39.13 5.47 20.14 2.65 1.19 0.17 20.18 3 39.13"/>
      <path class="cls-2" d="M0,20.18,2.64,0l3,20.13L3,40.32ZM2.66,2.38.33,20.18,3,37.94l2.32-17.8Z"/>
    </g>
  </g>
</svg>