<svg xmlns="http://www.w3.org/2000/svg" viewBox="0 0 99.82 99.82"><title>question mark with white circle</title><g id="9f884aa7-b7b4-4d84-b2f2-9560315f5007" data-name="Layer 2"><g id="221746c7-697c-4413-8cb6-5f82ec9d72da" data-name="Layer 6"><circle cx="49.91" cy="49.91" r="49.91" fill="#fff"/><path d="M60.72,46.81c-6.65,4-8,8-8,14.23v2H39.19a31.37,31.37,0,0,1-.55-5.63c0-7.48,3.23-12.1,8.78-16.07,3.88-2.77,5.45-4.25,5.45-7,0-3.42-2.49-4.8-6.28-4.8a11.86,11.86,0,0,0-8.78,4.06L30.7,23.72a25.67,25.67,0,0,1,18.66-7.48c10.62,0,19.77,5.36,19.77,15.89A16.06,16.06,0,0,1,60.72,46.81ZM46.4,83.58a8.79,8.79,0,0,1-8.68-9,9,9,0,1,1,8.68,9Z" fill="#ccc"/></g></g></svg>