<svg id="e1596214-5938-477c-9db5-f8a59578b7ad" data-name="Layer 3" xmlns="http://www.w3.org/2000/svg" viewBox="0 0 165.65 165.56"><title>condom packet</title><polygon points="159.51 47.13 155.67 42.22 149.53 43.27 145.69 38.36 139.55 39.41 135.72 34.5 129.58 35.55 125.74 30.64 119.6 31.69 115.77 26.78 109.63 27.83 105.79 22.92 99.65 23.97 95.81 19.06 89.67 20.11 85.84 15.2 79.7 16.25 75.86 11.34 69.72 12.39 65.88 7.48 59.74 8.53 55.91 3.62 49.77 4.67 46.12 0 0 119.19 5.84 118.19 9.68 123.1 15.82 122.05 19.66 126.96 25.8 125.91 29.63 130.82 35.77 129.77 39.61 134.68 45.75 133.63 49.59 138.54 55.73 137.49 59.56 142.4 65.7 141.35 69.54 146.26 75.68 145.21 79.51 150.12 85.65 149.07 89.49 153.98 95.63 152.93 99.47 157.84 105.61 156.79 109.44 161.7 115.58 160.65 119.42 165.56 165.65 46.08 159.51 47.13" fill="#8e291d"/><circle cx="-2699.83" cy="-3063.77" r="49.62" transform="translate(3914.38 -1329.66) rotate(-68.85)" fill="#b43226"/><circle cx="-2699.83" cy="-3063.77" r="48.39" transform="translate(3914.38 -1329.66) rotate(-68.85)" fill="#9e2e21"/></svg>