<svg id="f2dc80f1-9389-40ef-859f-5b1d6af58e0b" data-name="piercing" xmlns="http://www.w3.org/2000/svg" viewBox="0 0 50.35 39.83"><title>piercing ring bottom</title><path d="M789.12,572.75c12.91-6,19.94-18.36,15.67-27.52-1.76-3.78-5.16-6.51-9.7-7.92a29.43,29.43,0,0,1-2.3,3.5c4,1,7,3.1,8.37,6.11a10.07,10.07,0,0,1,.86,5.19c-0.55,6.22-6.15,13.09-14.6,17a28,28,0,0,1-16.12,2.62c-4.71-.78-8.16-3.06-9.72-6.39s-1.07-7.44,1.36-11.55c0.17-.29.37-0.57,0.55-0.85-1.43-.18-2.83-1.38-4.18-1.78a23.12,23.12,0,0,0-2.58,8.7A13.93,13.93,0,0,0,758,567c2.13,4.57,6.63,7.64,12.69,8.65A32,32,0,0,0,789.12,572.75Z" transform="translate(-756.19 -536.71)" fill="#6d6f71" stroke="#6d6f71" stroke-miterlimit="10"/></svg>