<?xml version="1.0" encoding="utf-8"?>
<!-- Generator: Adobe Illustrator 21.1.0, SVG Export Plug-In . SVG Version: 6.00 Build 0)  -->
<svg version="1.1" id="f2dc80f1-9389-40ef-859f-5b1d6af58e0b"
	 xmlns="http://www.w3.org/2000/svg" xmlns:xlink="http://www.w3.org/1999/xlink" x="0px" y="0px" viewBox="0 0 50.3 39.8"
	 style="enable-background:new 0 0 50.3 39.8;" xml:space="preserve">
<style type="text/css">
	.st0{fill:#6D6F71;stroke:#6D6F71;stroke-miterlimit:10;}
</style>
<title>piercing ring bottom</title>
<path class="st0" d="M48.6,8.5c-1.8-3.8-5.2-6.5-9.7-7.9c-0.7,1.2-1.5,2.4-2.3,3.5c4,1,7,3.1,8.4,6.1c0.7,1.6,1,3.4,0.9,5.2
	c-0.5,6.2-6.2,13.1-14.6,17c-5,2.5-10.6,3.4-16.1,2.6C10.4,34.2,7,32,5.4,28.6c-1.6-3.3-1.1-7.4,1.3-11.5H1.9
	c-0.7,1.9-1.2,3.9-1.4,6c-0.2,2.5,0.2,4.9,1.3,7.1c2.1,4.6,6.6,7.6,12.7,8.7c6.3,0.9,12.7-0.1,18.4-2.9C45.8,30,52.9,17.7,48.6,8.5z
	"/>
</svg>
