<svg xmlns="http://www.w3.org/2000/svg" viewBox="0 0 1097.44 140.18"><title>hrizontal image with white border across the top of waves</title><g id="e8ee44f4-cf56-43f9-8ed3-63c183e13c6d" data-name="Layer 2"><g id="6a38d4b4-e5fc-417b-8bd7-634a4151c9c8" data-name="Layer 6"><path d="M1049.48,127.85h0c0-.05,0-.09,0-.14a1.4,1.4,0,0,0-.06-.37c-.33-1.23-1.81-1.74-2.93-2.35-.17-.12-.36-.22-.53-.33h0a49.89,49.89,0,0,0-18.87-7.89c-3.51-.65-3.69-2-2.86-4.92,2.2-7.64,4.17-15.35,6.22-23,.45-1.7,1.43-3.67-1.25-4.38s-2.84,1.55-3.29,3.2c-2.08,7.54-4.25,15.07-6.06,22.68-.8,3.38-2.11,4.81-5.87,4.92a58.81,58.81,0,0,0-25.89,6.56,11.19,11.19,0,0,0-1.9-1.35c-4.7-2.55-6.72-5.83-4.68-11.46a182.72,182.72,0,0,0,11-63.43c0-1.84-1.06-4.57,1.36-5.29,2.12-.63,3.4,1.84,4.54,3.34,3.52,4.64,6.82,9.44,10.88,15.13,2.45-9.74-1-17.31-4.75-25.6,9.4,2.69,14.7,9.15,20.68,15.84,2.63-11.44-2.79-18.18-11.65-24,7.1-.83,12.47,2.19,18.37,3.55-3.51-9.84-10.55-14.17-27.38-17.15,2-3.73,6.86-4.35,9.12-8.27-8.36-2.43-16-1.37-21.72,4.21-4.94,4.8-7.59,3.66-11.89-.59-7.3-7.21-13.2-6.8-21,.38,3.7,3,9.29,3.33,12.27,7.91-20.3,2.8-25.6,5.72-26.23,14.62,7.63-3.16,15.39-3.19,23.27-2.4-7,4.89-12.45,10.26-13.71,21,6.68-5.87,13.24-8.6,19.74-11.5,6.18-2.76,9.64-.87,10.08,5.78.45,6.82-.43,13.57-1.22,20.32A163.32,163.32,0,0,1,971,109.58c-.72,1.66-1.55,3.75-3.71,3.22s-1.22-2.71-1.23-4.17c0-8.09-1.81-15.84-4-23.55-1-3.57-4.76-7.8-2.39-10.55,2.53-2.94,6.95.8,10.59,1.31.39.05.76.28,1.15.34,1,.14,2.12.74,2.8-.22.84-1.2,0-2.33-.85-3.16-2.16-2.17-4.43-4.23-6.78-6.46,4.08-2.84,8.59-2.31,12.84-4.28-4.33-5.61-10.24-5.6-16-5.44-.33-2.24,3.36-2.77,1.65-4.75a4.16,4.16,0,0,0-5.08-.62c-7.85,4.91-15.76,6.46-24.34,1.78a3,3,0,0,0-4.08,1.57c-.49,1.54,1.25,2.37,2.35,3.1,3.77,2.52,3.35,4-.72,5.87-6.18,2.88-9.49,8.06-10.31,15.59,4.91-1.81,7.9-5.67,12.28-7,1.1-.33,2.12-1.54,3.28-.63,1.61,1.26.15,2.53-.36,3.7-2.18,5.07-3.9,10.21-3.19,16.83,3.82-3.95,5.45-8.38,9-11.36,4.84-4.11,7.09-4,9.29,1.82a74.39,74.39,0,0,1,5,28.76,8.39,8.39,0,0,1-2.34,6c-2.75,2.57-4.88-2.28-7.6-1.06s2.57,6.12-2.85,6.08a1.53,1.53,0,0,0-.59.06c-3.08,1.33-5.35,5-5.37,6.9,0,2.95,4.12,1.73,6.47,1.74,11.37.09,22.74.09,34.1,0a3.27,3.27,0,0,0,.91.18h65.23a3.4,3.4,0,0,0,3.37-3.23A1.8,1.8,0,0,0,1049.48,127.85Z" fill="#fff" stroke="#f05a28" stroke-miterlimit="10" stroke-width="3"/><path d="M1029.41,60.32c.09-1.46-.91-1.44-1.78-1.6-9.92-1.82-25,5.11-30.41,14-.53.87-1.32,1.75-.78,2.81.7,1.37,1.94.81,3.07.64,5-.77,9.69-.39,13.7,3.25,3.11,2.83,3.56,2.63,5.2-1.38,2.44-6,5.07-11.81,9.83-16.38A17.41,17.41,0,0,0,1029.41,60.32Z" fill="#fff" stroke="#f05a28" stroke-miterlimit="10" stroke-width="3"/><path d="M1043,62.84c-1.73-.6-2.46-.42-1.92,1.63,1.76,6.7,1.42,13.44.35,20.19-.45,2.82.33,4.2,3.5,3.43,5.13-1.25,9.59.21,13.53,3.58.92.79,1.72,2.21,3.22,1.41,1.22-.66.75-2,.85-3C1062.37,79.74,1052.59,66.2,1043,62.84Z" fill="#fff" stroke="#f05a28" stroke-miterlimit="10" stroke-width="3"/><path d="M1019.45,79.68c-1,2.67.57,2.93,2.53,2.51a15.25,15.25,0,0,1,14.56,4c2.24,2.12,3.14.66,3.47-1.49a40.61,40.61,0,0,0,.85-9.63,25.62,25.62,0,0,0-1-9.46c-1.91-6.09-6-7.21-10.63-2.75C1024.4,67.5,1021.69,73.47,1019.45,79.68Z" fill="#fff" stroke="#f05a28" stroke-miterlimit="10" stroke-width="3"/><path d="M1.91,137.51l-.23-1.42c3.72-1.13,7.41-2.38,11.17-3.37,30.5-8.07,61.53-13,92.87-16.34,48.3-5.18,96.74-5.72,145.2-4.55,29.6.71,59.18,2.62,88.69,5.4,22.86,2.15,45.78,3.68,68.68,5.39,44.5,3.32,89.06,5.16,133.67,6.28,35.82.9,71.63.79,107.44.36,29.63-.36,59.25-1.54,88.86-2.89,41.4-1.9,82.77-4.42,124.19-6,23.45-.92,46.87-2.42,70.29-3.89,15.44-1,30.85-2.63,46.29-3.47,20.29-1.1,40.2,1.8,59.82,6.81,17.77,4.53,35.13,10.42,52.4,16.54,1.51.54,3.25.76,5,3" fill="#eb541d" stroke="#fff" stroke-miterlimit="10" stroke-width="3"/></g></g></svg>