<svg xmlns="http://www.w3.org/2000/svg" viewBox="0 0 99.82 99.82"><title>yellow flag with white circle</title><g id="3eabfe82-4147-4da4-a3d3-3e9f94a7bd54" data-name="Layer 2"><g id="14828191-37a7-42bf-b324-fa20feb033cb" data-name="Layer 6"><circle cx="49.91" cy="49.91" r="49.91" fill="#fff"/><path d="M45.83,24.63a11.71,11.71,0,0,1,7.27-.37,22.6,22.6,0,0,1,5.2,1.7,20.23,20.23,0,0,1,7.58,5.63A11.48,11.48,0,0,1,67.31,34a1.12,1.12,0,0,1,0,1c-.69,1.49-1.34,3-2,4.5a.55.55,0,0,0,.2.78,22.77,22.77,0,0,0,6.65,3.56A17.65,17.65,0,0,0,77.71,45,7.64,7.64,0,0,0,80,44.68c.1,0,.22-.1.31,0s0,.23,0,.34-.09.2-.13.3Q74.74,57.39,69.37,69.46a1.86,1.86,0,0,1-.93,1,8.08,8.08,0,0,1-4.21.74A16.34,16.34,0,0,1,53,65.92,9.77,9.77,0,0,1,51,62.42a1.07,1.07,0,0,1,0-.85C51.7,60,52.37,58.5,53.07,57a.53.53,0,0,0-.2-.77,38.42,38.42,0,0,0-4.51-2.76,36.4,36.4,0,0,0-4.85-2.13,21,21,0,0,0-6.79-1.41,8.25,8.25,0,0,0-1.71.18,1.08,1.08,0,0,0-.84.7Q29.92,60.38,25.64,70c-.77,1.73-1.55,3.45-2.3,5.19-.18.42-.37.54-.8.33q-1.3-.63-2.64-1.17c-.45-.18-.49-.4-.29-.81.36-.72.66-1.47,1-2.21l22.72-51c.36-.82.26-.79,1.09-.42s1.61.74,2.43,1.07c.41.17.5.36.31.77C46.7,22.63,46.3,23.58,45.83,24.63Z" fill="#ffc600"/></g></g></svg>