<?xml version="1.0" encoding="utf-8"?>
<!-- Generator: Adobe Illustrator 21.0.0, SVG Export Plug-In . SVG Version: 6.00 Build 0)  -->
<svg version="1.1" id="_x37_4820c0b-ae39-4c12-aab8-557d5cc2c132"
	 xmlns="http://www.w3.org/2000/svg" xmlns:xlink="http://www.w3.org/1999/xlink" x="0px" y="0px" viewBox="0 0 1367.9 4000"
	 style="enable-background:new 0 0 1367.9 4000;" xml:space="preserve">
<style type="text/css">
	.st0{opacity:0.2;fill:#F8D7C0;enable-background:new    ;}
</style>
<title>stomach inside</title>
<path class="st0" d="M849.2,2365.4c4,0,7.6-12.5,10.5-33.8v-0.1c14-58.1,23.8-187.1,23.8-337.1c0-153.2-10.2-284.7-24.7-340.7v-0.1
	c-2.7-17.6-6-27.2-9.6-27.5h-2.5c-0.1,0-0.3,0-0.4-0.1c-1.1-0.7-2.2-1.2-3.3-1.2v1.3H525.9c-0.5,0-0.9-0.6-0.9-1.3v-18.4
	c0-0.7,0.4-1.3,0.9-1.3h323.3c3.8,0,7.2-11.5,10-30.8v-0.1c14.3-57.1,24.2-187,24.2-338c0-150.9-10-280.9-24.2-338V898
	c-2.8-19.3-6.3-30.8-10-30.8H525.9c-0.5,0-0.9-0.6-0.9-1.3v-4.9c0-0.7,0.4-1.3,0.9-1.3h161.7c0.1,0,0.1,0,0.2,0
	c0.5-0.1,2.8-1.3,3.6-4.5l0,0c6.5-21.8,11.2-79.9,11.6-148.6v-46c-0.4-16.9-1-49.7-1-49.7V157.3c0-87.2-7.6-157.7-17-157.7h-5
	c-9.4,0-17,70.8-17,157.7v344.4c0,0.7-0.4,1.3-0.9,1.3H521.7c-2.1,0-4.1,3.6-6,10.3c0,0,0,0.1-0.1,0.1
	c-17.8,38.8-31.1,185.5-31.1,360.4c0,197.2,16.8,358.3,38.1,370h-0.9c-2,0-3.9,3.1-5.7,9.1c0,0,0,0.1-0.1,0.1
	c-18,37.8-31.3,184.9-31.3,360.8c0,169.7,12.5,312.6,29.4,356.4c0,0.1,0.1,0.1,0.1,0.3c2.3,10.9,4.9,17,7.6,17h320.4
	c0.5,0,0.9,0.6,0.9,1.3v12.4c0,0.7-0.4,1.3-0.9,1.3H525v-0.9c-1,0-1.9,0.3-2.8,0.9h-0.5c-1.7,0-3.3,2.2-4.8,6.7c0,0,0,0.1-0.1,0.1
	c-18.4,35.1-32.3,184.3-32.3,363.1c0,201.5,17.6,365.6,39.5,370.6c0.5,0.1,1-0.4,1-1.3l0,0c0-0.7,0.4-1.3,0.9-1.3h316.3
	c0.5,0,0.9,0.6,0.9,1.3v7.9c0,0.7-0.4,1.3-0.9,1.3H521.7c-2.7,0-5.4,6-7.7,17.5c0,0.1,0,0.1-0.1,0.3c-17,44.1-29.4,187.1-29.4,356.7
	c0,174.9,13.2,321.6,31,360.5l0.1,0.1c1.9,6.9,3.9,10.3,6,10.3h141.5c0.5,0,0.9,0.6,0.9,1.3v344.1c0,87.2,7.6,157.9,17,157.9h5
	c9.4,0,17-70.8,17-157.9v-453.6c0,0,0.8-32.9,1-49.7v-45.7c-0.2-68.6-4.9-126.8-11.5-148.6c-2-8.1-4.3-12.1-6.6-12.2H681
	c-0.9-0.1-2.5,1.8-3.1,2.7c-0.2,0.1-0.4,0.3-0.6,0.3H525.9c-0.5,0-0.9-0.6-0.9-1.3V3114c0-0.7,0.4-1.3,0.9-1.3h323.3
	c3.9,0,7.5-12.4,10.3-33v-0.1c14.1-57.7,23.9-186.5,23.9-336.5c0-158.6-11-293.6-26.4-345.6v-0.1c-2.2-11.2-4.8-17.3-7.5-17.9
	c-1.8-2.7-3.7-4.2-5.5-4.6c-0.5-0.1-1,0.4-1,1.3v2.1c0,0.7-0.4,1.3-0.9,1.3H525.9c-0.5,0-0.9-0.6-0.9-1.3v-12.4
	c0-0.7,0.4-1.3,0.9-1.3l323.2,1.5h0.1V2365.4z M525,1228.8h318v14.9H525V1228.8z"/>
</svg>
