<?xml version="1.0" encoding="utf-8"?>
<!-- Generator: Adobe Illustrator 19.1.0, SVG Export Plug-In . SVG Version: 6.00 Build 0)  -->
<svg version="1.1" id="_x37_4820c0b-ae39-4c12-aab8-557d5cc2c132"
	 xmlns="http://www.w3.org/2000/svg" xmlns:xlink="http://www.w3.org/1999/xlink" x="0px" y="0px"
	 viewBox="263 -590.9 1367.9 1775.2" style="enable-background:new 263 -590.9 1367.9 1775.2;" xml:space="preserve">
<style type="text/css">
	.st0{opacity:0.2;fill:#F8D7C0;enable-background:new    ;}
</style>
<title>stomach inside</title>
<path class="st0" d="M1513.3,458.6c13.6,0,26-5.6,35.9-15c48.2-25.7,81.8-82.9,81.8-149.3c0-67.9-35-126.1-84.9-150.9
	c-9.1-7.8-20.7-12.1-32.8-12.2h-9.4c-3.9-0.4-7.8-0.6-11.8-0.6v0.6H401.8v-9.5h1111.4c12.9,0,24.8-5.1,34.5-13.7
	c49-25.3,83.2-83,83.2-150s-34.2-124.7-83.2-150c-9.6-8.6-21.6-13.7-34.5-13.7H401.8v-3h564.9c1.9-0.7,3.8-1.5,5.7-2.5
	c22.4-9.7,38.5-35.5,38.5-66v-20.4c0-7.5-1-14.9-3-22.1v-201.1c0-38.7-26-70-58-70h-16.9c-32.1,0-58,31.4-58,70v153.2H390.5
	c-7.2,0-14.3,1.6-20.8,4.6C308.5-345.8,263-280.7,263-203c0,87.5,57.7,159,130.5,164.2h-3c-6.8,0-13.5,1.4-19.7,4.1
	C309.1-18,263.1,47.4,263.1,125.6c0,75.4,42.8,138.9,101.1,158.3c7.9,4.9,17,7.6,26.3,7.6h1101.7v6.6H401.8v-0.5
	c-3.3,0-6.5,0.1-9.7,0.4h-1.6c-5.7,0-11.4,1-16.7,3C310.5,316.5,263,382.8,263,462.2c0,90.8,62.1,164.5,138.8,164.5v-1.2h1090.3v4.9
	H390.4c-9.4,0-18.6,2.7-26.6,7.8c-58.2,19.5-100.9,83-100.9,158.3c0,77.7,45.5,142.8,106.6,160c6.5,3.1,13.6,4.6,20.8,4.6H879v153.2
	c0,38.7,26,70,58,70h16.9c32.1,0,58-31.4,58-70V913.1c2-7.2,3-14.6,3-22.1v-20.3c0-30.4-16.1-56.3-38.5-66c-7-3.6-14.7-5.4-22.5-5.5
	H937c-3.9,0-7.7,0.5-11.5,1.4H401.7v-9.8h1111.5c13.4,0,25.7-5.5,35.5-14.7c48.4-25.6,82.1-82.9,82.1-149.5
	c0-70.5-37.7-130.5-90.7-153.6c-7.7-5-16.6-7.7-25.7-8c-7.4-1.4-14.9-2.1-22.4-2.1v2.1H401.8v-6.5L1513.3,458.6L1513.3,458.6z
	 M401.8-45.4h1090.3v6.6H401.8V-45.4z"/>
</svg>
